<svg width="30" height="30" viewBox="0 0 30 30" fill="none" xmlns="http://www.w3.org/2000/svg"><title> </title><path fill="#88a2c3" d="M15.6988 2.00394C15.6983 2.00164 15.6962 2 15.6939 2C15.6911 2 15.6888 2.00226 15.6888 2.00506V13.607C15.6888 14.6297 16.5307 15.6612 16.5307 16.6838C16.5307 17.4684 16.0155 18.1037 15.3791 18.1042C14.7428 18.1037 14.2276 17.4684 14.2276 16.6838C14.2276 15.6612 15.0695 14.6297 15.0695 13.607V2.00506C15.0695 2.00226 15.0672 2 15.0644 2C15.0621 2 15.06 2.00164 15.0595 2.00394C13.9655 6.82591 12.1586 11.2914 9.89227 15.5273C9.34531 16.5495 9.3081 17.7608 9.64503 18.8702C9.81284 19.4227 9.95776 20.0075 10.0791 20.6255C10.4497 22.5121 11.9931 24.0257 13.9157 24.0257H16.8426C18.7652 24.0257 20.3086 22.5121 20.6792 20.6255C20.8005 20.0075 20.9455 19.4227 21.1133 18.8702C21.4502 17.7608 21.413 16.5495 20.866 15.5273C18.5997 11.2914 16.7928 6.82591 15.6988 2.00394Z"></path><path fill="#88a2c3" d="M19.9188 26.1475C19.9188 26.792 19.3963 27.3145 18.7518 27.3145H12.0069C11.3623 27.3145 10.8398 26.792 10.8398 26.1475C10.8398 25.503 11.3623 24.9805 12.0069 24.9805H18.7518C19.3963 24.9805 19.9188 25.503 19.9188 26.1475Z"></path></svg>
