<svg width="361" height="548" viewBox="0 0 361 548" fill="none" xmlns="http://www.w3.org/2000/svg">
<path d="M253.569 254.763L349.948 354.06C369.368 374.068 355.24 407.665 327.406 407.665H231.104C222.759 407.665 214.755 404.339 208.854 398.417L65.8533 254.926C53.5645 242.595 53.5645 222.603 65.8533 210.273L206.756 68.8869C212.657 62.9652 220.661 59.6387 229.007 59.6387H326.772C354.697 59.6387 368.786 93.4247 349.181 113.38L253.702 210.566C241.677 222.807 241.617 242.451 253.569 254.763Z" fill="url(#paint0_linear_3501_19680)"/>
<path d="M162.007 395.099L65.6279 494.394C46.2073 514.405 60.3356 548.001 88.1701 548.001H184.471C192.817 548.001 200.821 544.675 206.722 538.754L349.722 399.598C362.011 387.268 362.011 362.939 349.722 350.609L208.032 206.64C202.131 200.719 194.915 199.975 186.569 199.975H88.8041C60.8785 199.975 44.0278 231.943 63.6327 251.898L161.874 350.902C173.899 363.143 173.958 382.786 162.007 395.099Z" fill="url(#paint1_linear_3501_19680)"/>
<path d="M195.234 194.362L294.498 294.421C313.919 314.43 299.791 348.027 271.956 348.027H175.655C161.32 348.027 155.334 344.827 149.432 338.905L8.17952 197.168C-4.10917 184.837 -1.88503 162.965 10.4036 150.634L151.307 9.2481C157.208 3.32662 165.212 0 173.557 0H271.322C299.248 0 313.336 33.7862 293.731 53.7415L198.252 150.928C186.227 163.168 183.283 182.049 195.234 194.362Z" fill="url(#paint2_linear_3501_19680)"/>
<path d="M109.247 347.796L9.61877 446.973C-10.4564 466.957 4.1483 500.515 32.9211 500.515H132.469C141.096 500.515 149.369 497.189 155.47 491.278L303.291 347.959C315.994 335.643 315.994 315.675 303.291 303.359L160.951 159.295C154.851 153.381 144.46 143.187 128.605 141.419H46.6495C39.0487 141.419 31.1871 140.079 23.9617 142.446C4.78544 148.726 -8.08874 176.879 6.86462 195.883L111.688 300.829C124.119 313.055 121.602 335.498 109.247 347.796Z" fill="url(#paint3_linear_3501_19680)"/>
<defs>
<linearGradient id="paint0_linear_3501_19680" x1="68.7288" y1="233.652" x2="359.148" y2="81.8569" gradientUnits="userSpaceOnUse">
<stop stop-color="#E02666"/>
<stop offset="0.418893" stop-color="#E02666" stop-opacity="0.55"/>
<stop offset="0.69315" stop-color="#E02666" stop-opacity="0.3"/>
<stop offset="0.958333" stop-color="#E02666" stop-opacity="0"/>
</linearGradient>
<linearGradient id="paint1_linear_3501_19680" x1="358.722" y1="374.198" x2="69.3604" y2="529.369" gradientUnits="userSpaceOnUse">
<stop stop-color="#9657F5"/>
<stop offset="0.354901" stop-color="#9657F5" stop-opacity="0.61"/>
<stop offset="0.744792" stop-color="#CA3591" stop-opacity="0.199034"/>
<stop offset="1" stop-color="#E02666" stop-opacity="0.02"/>
</linearGradient>
<linearGradient id="paint2_linear_3501_19680" x1="1.18684" y1="177.872" x2="303.719" y2="19.0969" gradientUnits="userSpaceOnUse">
<stop offset="0.129093" stop-color="#E02666"/>
<stop offset="0.640625" stop-color="#B53CB7" stop-opacity="0.37"/>
<stop offset="0.953125" stop-color="#8C77DE" stop-opacity="0"/>
</linearGradient>
<linearGradient id="paint3_linear_3501_19680" x1="312.819" y1="318.637" x2="4.67358" y2="500.871" gradientUnits="userSpaceOnUse">
<stop stop-color="#E02666"/>
<stop offset="0.353046" stop-color="#E52EB6" stop-opacity="0.67"/>
<stop offset="0.493753" stop-color="#E731CF" stop-opacity="0.51"/>
<stop offset="0.6874" stop-color="#E0276D" stop-opacity="0.39"/>
<stop offset="0.786458" stop-color="#E02666" stop-opacity="0.33"/>
<stop offset="0.979167" stop-color="#E02666" stop-opacity="0"/>
</linearGradient>
</defs>
</svg>
